<svg width="34" height="34" viewBox="0 0 34 34" fill="none" xmlns="http://www.w3.org/2000/svg">
<g id="slack">
<path id="vector" d="M30.1253 15.75C31.851 15.75 33.25 14.351 33.25 12.6252C33.25 10.8995 31.8509 9.50049 30.1251 9.50049C28.3992 9.50049 27 10.8996 27 12.6255V15.75H30.1253ZM21.375 15.75C23.1009 15.75 24.5 14.3508 24.5 12.625V3.87549C24.5 2.1496 23.1009 0.750488 21.375 0.750488C19.6491 0.750488 18.25 2.1496 18.25 3.87549V12.6249C18.25 14.3508 19.6491 15.75 21.375 15.75Z" fill="#2EB67D"/>
<path id="vector_2" d="M3.87473 18.25C2.14899 18.25 0.750003 19.649 0.750003 21.3748C0.750003 23.1005 2.14913 24.4995 3.87487 24.4995C5.60076 24.4995 7 23.1004 7 21.3745V18.25H3.87473ZM12.625 18.25C10.8991 18.25 9.5 19.6492 9.5 21.375V30.1245C9.5 31.8504 10.8991 33.2495 12.625 33.2495C14.3509 33.2495 15.75 31.8504 15.75 30.1245V21.375C15.75 19.6492 14.3509 18.25 12.625 18.25Z" fill="#E01E5A"/>
<path id="vector_3" d="M18.25 30.1253C18.25 31.851 19.649 33.25 21.3748 33.25C23.1005 33.25 24.4995 31.8509 24.4995 30.1251C24.4995 28.3992 23.1004 27 21.3745 27L18.25 27L18.25 30.1253ZM18.25 21.375C18.25 23.1009 19.6492 24.5 21.375 24.5L30.1245 24.5C31.8504 24.5 33.2495 23.1009 33.2495 21.375C33.2495 19.6491 31.8504 18.25 30.1245 18.25L21.3751 18.25C19.6492 18.25 18.25 19.6491 18.25 21.375Z" fill="#ECB22E"/>
<path id="vector_4" d="M15.7495 3.87473C15.7495 2.14899 14.3505 0.750002 12.6247 0.750001C10.899 0.750001 9.5 2.14913 9.5 3.87487C9.5 5.60076 10.8991 7 12.625 7L15.7495 7L15.7495 3.87473ZM15.7495 12.625C15.7495 10.8991 14.3504 9.5 12.6245 9.5L3.875 9.5C2.14911 9.5 0.75 10.8991 0.75 12.625C0.75 14.3509 2.14911 15.75 3.875 15.75L12.6245 15.75C14.3504 15.75 15.7495 14.3509 15.7495 12.625Z" fill="#36C5F0"/>
</g>
</svg>
